HIERARCHY
ROOT Hips
{
	OFFSET -0.179506 -22.333345 2.821913
	CHANNELS 6 Xposition Yposition Zposition Zrotation Yrotation Xrotation 
	JOINT LeftUpLeg
	{
		OFFSET 6.951974 -9.140623 -0.681533
		CHANNELS 3 Zrotation Yrotation Xrotation
		JOINT LeftLeg
		{
			OFFSET 3.427654 -37.519855 -0.449580
			CHANNELS 3 Zrotation Yrotation Xrotation
			JOINT LeftFoot
			{
				OFFSET -1.359570 -39.796059 -4.369333
				CHANNELS 3 Zrotation Yrotation Xrotation
				JOINT LeftToe
				{
					OFFSET 2.635814 -5.579078 11.928840
					CHANNELS 3 Zrotation Yrotation Xrotation
					End Site
					{
						OFFSET 0.000000 0.000000 0.000000
					}
				}
			}
		}
	}
	JOINT RightUpLeg
	{
		OFFSET -6.767048 -9.052170 -0.431982
		CHANNELS 3 Zrotation Yrotation Xrotation
		JOINT RightLeg
		{
			OFFSET -3.829005 -38.256897 -0.885003
			CHANNELS 3 Zrotation Yrotation Xrotation
			JOINT RightFoot
			{
				OFFSET 1.577377 -39.841461 -4.231180
				CHANNELS 3 Zrotation Yrotation Xrotation
				JOINT RightToe
				{
					OFFSET -2.537174 -4.814398 12.334795
					CHANNELS 3 Zrotation Yrotation Xrotation
					End Site
					{
						OFFSET 0.000000 0.000000 0.000000
					}
				}
			}
		}
	}
	JOINT Spine
	{
		OFFSET -0.253288 10.896323 -2.669631
		CHANNELS 3 Zrotation Yrotation Xrotation
		JOINT Spine1
		{
			OFFSET 0.548704 13.518043 0.109247
			CHANNELS 3 Zrotation Yrotation Xrotation
			JOINT Spine2
			{
				OFFSET 0.145701 5.292222 2.542457
				CHANNELS 3 Zrotation Yrotation Xrotation
				JOINT Neck
				{
					OFFSET -0.277840 21.387037 -4.285703
					CHANNELS 3 Zrotation Yrotation Xrotation
					JOINT Head
					{
						OFFSET 0.515184 6.496960 5.134897
						CHANNELS 3 Zrotation Yrotation Xrotation
						End Site
						{
							OFFSET 0.000000 0.000000 0.000000
						}
					}
				}
				JOINT LeftShoulder
				{
					OFFSET 7.884473 12.174932 -3.408961
					CHANNELS 3 Zrotation Yrotation Xrotation
					JOINT LeftArm
					{
						OFFSET 9.097692 3.046888 -0.886815
						CHANNELS 3 Zrotation Yrotation Xrotation
						JOINT LeftForeArm
						{
							OFFSET 25.961220 -1.277207 -2.745643
							CHANNELS 3 Zrotation Yrotation Xrotation
							JOINT LeftHand
							{
								OFFSET 24.923361 0.898606 -0.117091
								CHANNELS 3 Zrotation Yrotation Xrotation
								End Site
								{
									OFFSET 0.000000 0.000000 0.000000
								}
							}
						}
					}
				}
				JOINT RightShoulder
				{
					OFFSET -8.175920 11.883285 -3.861528
					CHANNELS 3 Zrotation Yrotation Xrotation
					JOINT RightArm
					{
						OFFSET -9.601238 3.255117 -0.914307
						CHANNELS 3 Zrotation Yrotation Xrotation
						JOINT RightForeArm
						{
							OFFSET -25.374195 -1.332924 -2.140099
							CHANNELS 3 Zrotation Yrotation Xrotation
							JOINT RightHand
							{
								OFFSET -25.529810 0.777228 -0.555919
								CHANNELS 3 Zrotation Yrotation Xrotation
								End Site
								{
									OFFSET 0.000000 0.000000 0.000000
								}
							}
						}
					}
				}
			}
		}
	}
}
MOTION
Frames: 10
Frame Time: 0.033333
-19.389473 107.075058 -81.197006 2.497604 23.398157 -1.351191 -2.707598 -3.499798 -6.899630 -5.595195 -1.517566 36.448575 -0.146642 5.132087 -14.212032 1.738680 0.618584 -0.090680 -0.377760 -1.398053 -14.213431 -2.225557 -10.713267 13.346464 3.119318 -16.089276 4.102994 2.054937 -1.544850 2.092619 -3.138383 -0.105448 4.663694 1.584189 -6.907808 2.811272 -4.818223 -3.445810 -5.062398 -3.897565 -31.973381 7.031944 3.029930 -24.613439 5.655433 -11.766383 -9.690719 -0.967970 -58.536833 -36.309725 24.339547 9.810709 -73.569973 8.794804 -11.178831 -11.827557 9.069491 11.054339 -0.552271 3.298200 35.778275 -12.915241 18.649422 19.928865 47.362665 29.925272 21.217514 6.301233 2.098014 
-21.206015 107.182083 -84.738449 2.797028 26.211376 -1.052765 -3.590168 -3.299896 -3.739274 -4.715038 -4.020625 30.280800 0.571280 5.388648 -17.102560 1.991955 0.683325 -0.107418 -1.022641 -0.977370 -17.366441 -2.339439 -10.562013 14.174594 3.435499 -17.226757 7.063821 2.165233 -1.739147 2.375414 -3.331116 -1.103855 4.937016 2.356206 -7.780862 3.097959 -4.740363 -4.005522 -5.457426 -4.230666 -33.757577 7.289274 2.872289 -26.683761 6.364251 -11.614011 -11.543287 0.003871 -61.960795 -37.005852 27.920853 -3.110058 -72.480496 23.115816 -12.803607 -12.054845 10.284286 10.388994 -0.479407 3.282375 33.782201 -12.975867 18.994239 21.065870 47.872752 30.544459 21.193350 6.985204 2.768438 
-22.683914 107.170166 -88.179977 2.911674 27.961179 -1.006800 -4.416331 -2.799280 -1.616899 -3.737873 -5.253781 24.636334 1.475638 5.931138 -20.106957 2.138310 0.642655 0.080274 -1.699875 -0.881546 -19.815738 -2.248567 -10.292390 14.110928 4.119819 -17.624415 9.765153 2.340253 -1.694807 2.372880 -3.628915 -1.911307 5.602891 2.825034 -8.228365 3.152693 -4.577690 -4.446456 -5.592767 -4.514742 -35.030862 7.331708 3.165483 -27.850615 6.296689 -11.273618 -13.070790 0.506652 -64.212127 -37.830265 30.424558 -12.883271 -70.330599 34.045982 -13.593215 -12.460632 11.427364 9.694993 -0.585400 3.190844 32.048710 -12.869709 19.280161 22.271087 48.746009 31.516106 20.420992 8.120324 2.944171 
-24.254490 107.088516 -91.185661 2.762421 29.238501 -1.504613 -4.885451 -2.444655 -0.487633 -2.984156 -6.387323 20.395670 2.091262 6.849024 -22.175753 2.432718 0.601935 0.235651 -2.126596 -0.159324 -21.360140 -2.004465 -8.559035 13.802820 4.649127 -17.712654 12.139913 2.639836 -1.621913 2.288704 -4.029458 -2.428899 6.240151 3.140184 -8.788625 3.468184 -4.390443 -4.748386 -5.614839 -4.935721 -36.162959 7.412217 4.064297 -28.589858 5.485859 -11.162845 -14.459923 1.071888 -65.385125 -38.601728 31.828157 -18.656827 -68.184974 40.908764 -13.752242 -12.669250 12.467425 8.997551 -0.548412 3.039462 31.040912 -12.827712 19.182532 22.715509 49.112526 31.997334 19.668254 8.959566 2.964941 
-24.891657 106.961868 -92.777954 2.263235 30.517227 -2.174393 -4.835388 -1.882760 -0.464302 -2.757100 -6.575341 19.085921 2.388999 7.819374 -23.024140 2.611214 0.534989 -0.032366 -1.915981 0.474981 -21.628075 -2.393599 -7.260698 13.145214 4.675465 -17.137459 12.942759 3.063479 -1.808912 2.388037 -4.373507 -2.736872 6.693635 3.346731 -9.427360 4.007137 -4.209997 -5.167467 -5.909697 -5.238475 -36.975622 7.971452 4.732440 -28.702716 4.696166 -11.057169 -15.728450 1.893286 -65.266951 -39.301762 32.344148 -23.016367 -65.047034 46.315003 -14.166490 -12.570898 14.086201 8.212146 -0.355908 3.009253 30.404015 -13.051134 19.382723 24.259722 48.871296 33.755540 19.082189 9.669153 3.136820 
-24.810331 106.685516 -92.923187 1.535085 31.192616 -2.066732 -3.940337 -1.392485 -1.513672 -3.216756 -5.846474 19.898676 2.507503 7.499707 -23.821662 2.776359 0.512972 -0.162735 -1.232965 1.073174 -21.303106 -2.435469 -6.288788 11.899315 4.550032 -15.902858 11.118582 3.464001 -1.972920 2.492907 -4.733797 -2.898410 6.796620 3.600935 -10.360228 4.343891 -3.856784 -5.629048 -6.348477 -5.193069 -37.169739 8.085415 6.010443 -28.594683 2.921956 -10.829669 -16.992509 2.726736 -64.450752 -39.866834 32.336339 -25.529434 -61.783896 49.892778 -14.341578 -12.387217 15.595613 7.636715 0.213129 2.936875 29.057811 -13.048049 19.705302 26.984034 49.258540 37.194648 18.230570 10.531952 3.445364 
-25.634623 106.219803 -93.359314 0.742130 31.304362 -2.434024 -2.663438 -0.863502 -2.988692 -3.713867 -5.174765 21.491928 2.722411 7.737458 -25.059052 3.143835 0.505889 -0.500984 -0.562163 1.726309 -21.476625 -1.599386 -5.276639 12.502663 4.834788 -13.539749 8.053132 3.839709 -2.042858 2.657883 -4.971703 -3.031804 7.161039 3.892303 -11.107896 4.537011 -3.468430 -6.099868 -6.656228 -4.290339 -36.847229 7.640490 6.630314 -28.349275 2.436428 -10.917997 -17.949832 3.345237 -62.546392 -40.183058 31.169054 -25.718255 -58.168554 50.495022 -14.752779 -12.092357 16.953612 7.547891 0.648148 2.474208 27.604388 -12.644084 19.861730 28.465452 49.622132 39.258557 17.885614 10.906564 3.523855 
-26.469965 105.619057 -93.457245 -0.119082 30.202718 -2.582466 -1.264938 -0.710966 -5.142636 -4.148177 -3.650559 24.550902 2.844396 8.196139 -26.641608 3.537546 0.601205 -1.184680 0.188797 2.279919 -21.992239 -0.458563 -5.718642 13.692783 5.214783 -10.750187 4.102350 4.009232 -2.170587 3.060673 -4.955862 -3.169052 7.532366 4.421165 -11.509213 4.525070 -3.069662 -6.438188 -6.980876 -2.666784 -36.024354 6.325422 6.793621 -28.216097 1.518424 -10.582592 -18.419639 3.484275 -60.453436 -40.138236 29.720889 -25.633695 -54.871512 50.896864 -15.579568 -11.665787 18.374329 7.705044 0.780195 1.846028 25.496246 -11.865100 20.141175 30.236536 51.080434 41.554944 18.006661 11.022352 3.203695 
-27.230324 105.053474 -94.467163 -1.422701 28.491938 -2.756784 0.338049 -0.499470 -8.364500 -4.554613 -1.747004 28.287049 3.210842 8.653761 -27.505547 3.765152 0.651566 -1.860268 1.234748 2.790846 -21.915379 0.543731 -5.846926 13.651730 4.987282 -8.357870 1.579812 4.337977 -2.285356 3.423114 -4.565480 -3.274365 7.796297 4.934208 -12.106157 4.671074 -2.547810 -6.832179 -7.586992 -2.279480 -35.054737 6.062139 6.480914 -27.551946 0.748111 -9.921671 -19.220430 3.595147 -59.008486 -40.074177 28.615476 -24.379198 -50.140976 51.083952 -16.026136 -11.190106 19.668519 7.359164 1.448906 0.732442 23.704709 -10.204409 19.719958 29.831723 51.662081 41.900154 17.738657 11.134691 3.722051 
-28.019644 104.561058 -95.354843 -2.057676 25.047327 -2.679940 1.269952 -0.631521 -10.973075 -4.654536 -0.169619 31.652556 3.307151 9.604769 -27.463196 4.217995 0.582674 -2.350055 1.886810 3.033419 -21.891494 1.322435 -6.373275 14.065990 4.532964 -7.581244 -0.245723 4.281743 -2.208211 3.705056 -4.081827 -2.955662 7.816452 5.300757 -12.124309 4.674732 -2.209656 -6.617088 -7.915006 -1.904341 -33.266478 5.250855 5.642075 -26.233689 0.558970 -9.477756 -19.588278 3.270079 -57.203299 -39.960810 26.874589 -21.431491 -46.568205 48.834501 -16.582303 -10.380118 20.300097 7.533138 2.196785 -0.357410 22.043727 -7.723595 18.427254 26.570924 52.579695 38.835048 17.848887 10.829810 4.110036 
